<?xml version="1.0" standalone="no"?>
<!DOCTYPE svg PUBLIC "-//W3C//DTD SVG 20010904//EN"
 "http://www.w3.org/TR/2001/REC-SVG-20010904/DTD/svg10.dtd">
<svg version="1.0" xmlns="http://www.w3.org/2000/svg"
 width="400.000000pt" height="400.000000pt" viewBox="0 0 400.000000 400.000000"
 preserveAspectRatio="xMidYMid meet">
<metadata>
Created by potrace 1.11, written by Peter Selinger 2001-2013
</metadata>
<g transform="translate(0.000000,400.000000) scale(0.100000,-0.100000)"
fill="#000000" stroke="none">
<path d="M1840 3630 c0 -5 -20 -15 -44 -21 -57 -14 -81 -54 -72 -120 16 -113
23 -136 47 -142 10 -3 19 -12 19 -21 0 -9 4 -16 8 -16 5 0 14 -11 20 -24 6
-14 21 -26 34 -28 13 -2 22 -6 21 -10 -2 -5 -3 -21 -3 -37 0 -30 -19 -43 -70
-50 -5 0 -10 -8 -10 -16 0 -11 -13 -15 -54 -15 -30 0 -58 -4 -61 -10 -3 -5
-33 -10 -66 -10 -33 0 -59 -4 -59 -10 0 -5 -7 -10 -15 -10 -8 0 -15 -4 -15 -8
0 -5 -26 -14 -57 -21 -32 -7 -71 -19 -87 -27 -27 -13 -30 -12 -60 20 -17 18
-39 36 -49 39 -10 4 -16 11 -12 16 3 5 0 13 -6 16 -12 8 -38 -23 -39 -45 0
-17 -39 -98 -56 -116 -6 -7 -17 -26 -23 -43 -7 -17 -26 -36 -42 -43 -16 -7
-29 -19 -29 -25 0 -7 -4 -13 -10 -13 -5 0 -10 -9 -10 -19 0 -11 -7 -26 -15
-35 -8 -8 -15 -28 -15 -45 0 -17 -4 -31 -8 -31 -5 0 -15 -19 -22 -42 -8 -24
-18 -46 -23 -49 -12 -8 -25 -191 -15 -211 4 -9 8 -30 8 -47 0 -17 4 -31 8 -31
5 0 14 -17 20 -38 7 -22 23 -51 37 -66 14 -15 25 -31 25 -37 0 -5 3 -10 8 -10
63 -10 73 -9 59 6 -20 20 -11 50 19 64 22 10 24 9 21 -12 -2 -12 -2 -16 0 -9
7 19 20 14 28 -10 4 -14 8 -18 12 -10 2 6 11 12 19 12 9 0 13 -3 11 -7 -3 -5
1 -14 9 -21 12 -11 14 -6 14 29 0 31 6 46 24 60 16 13 26 34 31 66 4 27 11 53
17 60 5 7 11 59 13 115 2 57 5 112 7 123 11 53 23 81 42 97 12 10 26 22 33 28
7 5 17 10 23 10 5 0 10 4 10 9 0 5 14 14 30 21 17 7 30 16 30 20 0 9 119 40
155 40 14 0 25 5 25 10 0 6 13 10 28 10 15 0 34 6 41 13 10 10 16 7 32 -13 19
-22 28 -24 101 -25 57 0 83 4 85 13 3 6 9 12 15 12 5 0 26 17 47 38 52 52 79
72 96 72 31 0 145 25 145 31 0 4 28 10 63 13 104 11 227 14 227 7 0 -8 -95
-101 -104 -101 -4 0 -13 -6 -21 -12 -7 -7 -34 -31 -60 -53 -108 -92 -165 -150
-165 -166 0 -21 -16 -33 -25 -19 -3 5 -19 -3 -35 -20 -16 -17 -33 -30 -38 -30
-5 0 -14 -10 -21 -23 -7 -12 -31 -36 -55 -52 -24 -16 -47 -38 -52 -49 -5 -11
-17 -24 -28 -30 -10 -6 -47 -39 -82 -73 -34 -35 -67 -63 -74 -63 -6 0 -16 -11
-22 -25 -7 -16 -19 -25 -35 -25 -12 0 -23 -4 -23 -10 0 -5 -6 -10 -12 -10 -21
0 -122 -54 -136 -72 -7 -10 -22 -18 -33 -18 -10 0 -19 -6 -19 -14 0 -7 -6 -26
-14 -41 -19 -37 -11 -139 15 -174 11 -15 22 -44 26 -66 3 -21 13 -47 22 -58
60 -74 50 -69 144 -69 67 -1 90 3 100 15 7 8 37 18 71 22 l59 7 -6 -34 c-3
-18 -9 -66 -13 -106 -4 -40 -11 -75 -15 -78 -12 -7 -12 -44 0 -44 5 0 14 -20
20 -45 10 -38 15 -45 36 -45 14 0 25 5 25 10 0 15 40 12 56 -5 9 -8 13 -19 10
-24 -3 -5 1 -11 9 -15 8 -3 15 -12 15 -21 0 -8 5 -15 10 -15 6 0 10 -9 10 -20
0 -11 5 -20 10 -20 6 0 10 -7 10 -15 0 -9 -17 -20 -45 -27 -25 -7 -45 -16 -45
-20 0 -4 -9 -8 -20 -8 -11 0 -23 -6 -26 -14 -3 -7 -23 -16 -45 -20 -21 -3 -39
-11 -39 -16 0 -6 -11 -10 -25 -10 -15 0 -40 -14 -62 -35 -20 -19 -47 -35 -59
-35 -26 0 -124 -49 -124 -61 0 -5 -8 -9 -19 -9 -10 0 -24 -7 -31 -15 -7 -8
-19 -15 -26 -15 -8 0 -20 -11 -26 -25 -6 -14 -15 -25 -19 -25 -5 0 -19 -11
-33 -25 -14 -14 -29 -25 -34 -25 -7 0 -34 -28 -82 -87 -6 -7 -10 -19 -10 -27
0 -8 -4 -17 -9 -21 -6 -3 -13 -26 -17 -50 -3 -25 -10 -45 -15 -45 -14 0 -11
-60 4 -61 19 -3 50 -5 77 -7 20 -2 22 -4 10 -12 -13 -8 -12 -12 8 -25 12 -9
22 -23 22 -31 0 -8 7 -14 16 -14 10 0 14 -7 12 -23 -2 -16 3 -23 18 -25 12 -2
24 -12 27 -23 6 -22 55 -27 75 -7 9 9 12 7 12 -9 0 -12 5 -23 11 -25 5 -2 10
-22 11 -46 0 -33 4 -42 18 -42 10 0 21 7 24 17 6 14 9 14 27 -5 11 -12 24 -22
29 -22 6 0 10 -9 10 -20 0 -11 4 -20 10 -20 5 0 7 -7 3 -17 -5 -13 -2 -15 18
-9 53 16 68 18 86 6 17 -11 17 -11 0 -6 -11 3 -15 2 -12 -4 3 -6 34 -10 69
-10 34 0 66 -4 72 -9 5 -5 35 -12 66 -16 48 -6 59 -5 64 9 3 9 17 16 30 16 16
0 22 4 18 14 -4 10 0 13 13 10 10 -3 33 6 53 21 36 27 54 18 26 -14 -18 -20
-20 -31 -7 -31 19 0 41 32 41 60 0 33 15 48 24 24 4 -9 -1 -27 -9 -40 -9 -13
-11 -24 -6 -24 5 0 15 10 23 22 9 13 19 18 27 14 9 -6 9 -11 0 -22 -18 -22 6
-16 26 6 18 20 18 20 37 1 10 -11 18 -25 18 -31 0 -5 6 -10 14 -10 10 0 12 16
10 67 l-3 68 -55 3 c-31 2 -56 7 -56 12 0 6 5 10 11 10 15 0 109 101 109 117
0 7 7 13 15 13 10 0 17 14 21 40 4 22 11 43 15 46 5 3 9 33 9 66 0 38 5 67 14
77 18 21 32 101 17 101 -18 0 -12 30 7 37 9 4 20 11 23 16 4 5 16 6 28 2 19
-6 26 -23 22 -49 -1 -5 5 -6 14 -2 9 3 23 6 31 6 7 0 30 16 51 36 31 31 35 39
25 55 -15 23 -16 76 -2 84 6 3 10 18 9 33 0 22 -2 23 -8 9 -6 -17 -8 -17 -20
-3 -11 13 -10 18 4 32 9 9 14 23 11 31 -3 8 -6 19 -6 24 0 5 -6 9 -14 9 -9 0
-12 7 -9 21 7 27 -53 79 -91 79 -8 0 -16 5 -18 12 -5 15 -84 38 -135 38 -23 0
-45 5 -48 10 -3 6 -15 10 -26 10 -11 0 -19 7 -19 16 0 8 -7 22 -15 31 -9 8
-19 28 -22 44 -3 16 -9 29 -14 29 -5 0 -9 6 -9 13 0 7 -10 33 -22 58 -25 51
-27 60 -16 75 5 7 11 41 15 78 3 36 9 66 13 66 4 0 7 17 8 37 1 20 5 39 10 42
5 3 12 23 16 44 4 21 14 41 22 44 8 3 14 18 14 34 0 16 4 29 9 29 5 0 11 10
15 23 6 24 46 52 75 52 22 0 21 103 -3 136 -9 13 -16 33 -16 44 0 11 -13 35
-30 53 -16 18 -30 38 -32 43 -2 5 -13 11 -26 12 -12 0 -24 8 -27 17 -7 19 -85
75 -85 61 0 -6 -13 -11 -28 -11 -19 0 -38 -11 -61 -35 -18 -19 -41 -35 -52
-35 -10 0 -19 -4 -19 -10 0 -5 -15 -10 -34 -10 -19 0 -36 -5 -38 -12 -2 -6
-10 -8 -16 -4 -14 9 -16 36 -2 36 14 0 140 125 140 139 0 6 16 17 35 25 40 17
165 107 165 119 0 4 6 7 14 7 8 0 16 4 18 8 6 16 64 49 106 61 24 7 46 19 49
27 8 21 25 17 18 -5 -4 -14 -1 -18 17 -16 13 1 56 6 96 10 39 4 72 10 72 14 0
10 62 31 93 31 15 0 27 -4 27 -10 0 -5 8 -10 18 -10 9 0 23 -9 30 -20 7 -11
19 -20 27 -20 8 0 15 -7 15 -15 0 -17 45 -21 55 -5 3 6 24 10 45 10 58 0 86
17 100 60 14 43 7 102 -15 120 -8 7 -15 19 -15 26 0 8 -4 14 -9 14 -5 0 -11
26 -13 57 -3 31 -10 59 -16 61 -7 2 -12 10 -12 19 0 18 -57 73 -75 73 -7 0
-19 14 -27 30 -9 21 -21 31 -38 32 -49 3 -85 -3 -95 -16 -18 -23 -88 -28 -244
-16 -104 7 -157 8 -170 0 -14 -7 -21 -6 -25 3 -3 8 -11 5 -25 -11 -19 -22 -22
-22 -37 -8 -19 20 -58 30 -80 22 -25 -9 -43 23 -44 75 0 30 -6 52 -19 66 -12
12 -16 24 -10 30 5 5 -1 19 -16 35 -14 15 -25 36 -25 48 0 13 -7 20 -20 20
-11 0 -20 4 -20 8 0 15 -62 82 -76 82 -8 0 -14 4 -14 9 0 5 -20 15 -45 22 -25
7 -45 17 -45 21 0 4 -13 8 -30 8 -16 0 -30 -4 -30 -10z m350 -2758 c0 -22 -7
-46 -17 -58 -10 -10 -25 -32 -33 -49 -21 -43 -69 -88 -110 -102 -40 -14 -141
-20 -159 -9 -6 4 -11 1 -11 -8 0 -24 -21 -30 -27 -7 -4 17 -13 21 -44 21 -44
0 -49 5 -42 42 8 44 63 92 122 108 29 8 55 20 58 27 3 7 18 13 34 13 38 0 119
22 119 32 0 4 18 8 39 8 22 0 43 5 46 10 13 21 25 8 25 -28z m240 -112 c0 -5
-2 -10 -4 -10 -3 0 -8 5 -11 10 -3 6 -1 10 4 10 6 0 11 -4 11 -10z m-107 -361
c-4 -15 -9 -17 -17 -9 -8 8 -7 13 4 20 8 5 16 10 17 10 0 0 -1 -9 -4 -21z m57
4 c0 -17 -17 -25 -24 -11 -3 7 -4 1 -1 -14 6 -30 -9 -47 -19 -22 -10 27 4 63
25 61 10 -1 19 -7 19 -14z m30 -36 c0 -37 -1 -39 -14 -22 -8 12 -11 26 -6 35
4 8 5 21 2 29 -3 8 0 11 7 7 6 -4 11 -26 11 -49z"/>
</g>
</svg>
